<?xml version="1.0" encoding="iso-8859-1"?>
<!-- Generator: Adobe Illustrator 19.0.0, SVG Export Plug-In . SVG Version: 6.00 Build 0)  -->
<svg version="1.1" id="Layer_1" xmlns="http://www.w3.org/2000/svg" xmlns:xlink="http://www.w3.org/1999/xlink" x="0px" y="0px"
	 viewBox="0 0 511.999 511.999" style="enable-background:new 0 0 511.999 511.999;" xml:space="preserve">
<rect x="25.732" y="29.511" style="fill:#F98091;" width="391.334" height="114.163"/>
<rect x="25.737" y="143.674" style="fill:#E6E6E6;" width="391.334" height="346.762"/>
<rect x="25.732" y="29.511" style="fill:#E87084;" width="28.564" height="114.163"/>
<rect x="25.732" y="143.674" style="fill:#CCCCCC;" width="28.564" height="346.762"/>
<circle style="fill:#F98091;" cx="389.75" cy="407.28" r="95.745"/>
<path d="M303.031,205.042c0-5.082,4.125-9.207,9.207-9.207l0,0c5.082,0,9.207,4.125,9.207,9.207l0,0
	c0,5.094-4.125,9.219-9.207,9.219l0,0C307.156,214.261,303.031,210.136,303.031,205.042z M257.611,205.042
	c0-5.082,4.125-9.207,9.207-9.207l0,0c5.082,0,9.207,4.125,9.207,9.207l0,0c0,5.094-4.125,9.219-9.207,9.219l0,0
	C261.736,214.261,257.611,210.136,257.611,205.042z M212.191,205.042c0-5.082,4.125-9.207,9.207-9.207l0,0
	c5.094,0,9.207,4.125,9.207,9.207l0,0c0,5.094-4.112,9.219-9.207,9.219l0,0C216.316,214.261,212.191,210.136,212.191,205.042z
	 M166.772,205.042c0-5.082,4.125-9.207,9.219-9.207l0,0c5.082,0,9.207,4.125,9.207,9.207l0,0c0,5.094-4.125,9.219-9.207,9.219l0,0
	C170.896,214.261,166.772,210.136,166.772,205.042z"/>
<path d="M357.657,214.249c-0.602,0-1.203-0.049-1.805-0.172c-0.589-0.123-1.166-0.295-1.719-0.528
	c-0.552-0.233-1.093-0.516-1.596-0.847c-0.503-0.331-0.97-0.724-1.399-1.142c-0.417-0.43-0.81-0.896-1.142-1.399
	c-0.331-0.503-0.614-1.031-0.847-1.596c-0.233-0.552-0.405-1.129-0.528-1.719c-0.11-0.589-0.172-1.203-0.172-1.792
	c0-0.602,0.061-1.215,0.172-1.805c0.123-0.589,0.295-1.166,0.528-1.719c0.233-0.565,0.516-1.093,0.847-1.596
	c0.331-0.503,0.724-0.97,1.142-1.399c0.43-0.417,0.896-0.81,1.399-1.142c0.503-0.331,1.043-0.614,1.596-0.847
	c0.552-0.233,1.129-0.405,1.719-0.528c1.191-0.233,2.418-0.233,3.597,0c0.589,0.123,1.166,0.295,1.731,0.528
	c0.552,0.233,1.08,0.516,1.584,0.847s0.982,0.724,1.399,1.142c0.43,0.43,0.81,0.896,1.142,1.399
	c0.331,0.503,0.626,1.031,0.847,1.596c0.233,0.552,0.405,1.129,0.528,1.719c0.123,0.589,0.184,1.203,0.184,1.805
	c0,0.589-0.061,1.203-0.184,1.792c-0.123,0.589-0.295,1.166-0.528,1.719c-0.221,0.565-0.516,1.093-0.847,1.596
	c-0.331,0.503-0.712,0.97-1.142,1.399c-0.417,0.417-0.896,0.81-1.399,1.142c-0.503,0.331-1.031,0.614-1.584,0.847
	c-0.565,0.233-1.142,0.405-1.731,0.528C358.86,214.2,358.259,214.249,357.657,214.249z"/>
<path d="M85.151,284.22c-0.602,0-1.203-0.061-1.805-0.172c-0.577-0.123-1.166-0.295-1.719-0.528
	c-0.552-0.233-1.093-0.516-1.584-0.847c-0.516-0.344-0.982-0.724-1.412-1.142c-0.417-0.43-0.798-0.896-1.142-1.399
	c-0.331-0.503-0.614-1.043-0.847-1.596c-0.221-0.552-0.405-1.129-0.516-1.719c-0.123-0.602-0.184-1.203-0.184-1.805
	s0.061-1.203,0.184-1.792c0.11-0.589,0.295-1.166,0.516-1.731c0.233-0.552,0.516-1.08,0.847-1.584
	c0.344-0.503,0.724-0.97,1.142-1.399c0.43-0.43,0.896-0.81,1.412-1.142c0.491-0.331,1.031-0.626,1.584-0.847
	c0.552-0.233,1.142-0.405,1.719-0.528c1.191-0.246,2.418-0.246,3.597,0c0.589,0.123,1.178,0.295,1.731,0.528
	c0.552,0.221,1.093,0.516,1.584,0.847c0.503,0.331,0.982,0.712,1.399,1.142c0.43,0.43,0.81,0.896,1.142,1.399
	s0.626,1.031,0.847,1.584c0.233,0.565,0.417,1.142,0.528,1.731c0.123,0.589,0.184,1.191,0.184,1.792s-0.061,1.203-0.184,1.805
	c-0.11,0.589-0.295,1.166-0.528,1.719c-0.221,0.552-0.516,1.093-0.847,1.596c-0.331,0.503-0.712,0.97-1.142,1.399
	c-0.417,0.417-0.896,0.798-1.399,1.142c-0.491,0.331-1.031,0.614-1.584,0.847c-0.552,0.233-1.142,0.405-1.731,0.528
	C86.354,284.158,85.753,284.22,85.151,284.22z"/>
<path d="M303.031,275.013c0-5.082,4.125-9.207,9.207-9.207l0,0c5.082,0,9.207,4.125,9.207,9.207l0,0
	c0,5.094-4.125,9.207-9.207,9.207l0,0C307.156,284.22,303.031,280.107,303.031,275.013z M257.611,275.013
	c0-5.082,4.125-9.207,9.207-9.207l0,0c5.082,0,9.207,4.125,9.207,9.207l0,0c0,5.094-4.125,9.207-9.207,9.207l0,0
	C261.736,284.22,257.611,280.107,257.611,275.013z M212.191,275.013c0-5.082,4.125-9.207,9.207-9.207l0,0
	c5.094,0,9.207,4.125,9.207,9.207l0,0c0,5.094-4.112,9.207-9.207,9.207l0,0C216.316,284.22,212.191,280.107,212.191,275.013z
	 M166.772,275.013c0-5.082,4.125-9.207,9.219-9.207l0,0c5.082,0,9.207,4.125,9.207,9.207l0,0c0,5.094-4.125,9.207-9.207,9.207l0,0
	C170.896,284.22,166.772,280.107,166.772,275.013z M121.364,275.013c0-5.082,4.112-9.207,9.207-9.207l0,0
	c5.082,0,9.207,4.125,9.207,9.207l0,0c0,5.094-4.125,9.207-9.207,9.207l0,0C125.476,284.22,121.364,280.107,121.364,275.013z"/>
<path d="M357.657,284.22c-0.602,0-1.203-0.061-1.805-0.172c-0.589-0.123-1.166-0.295-1.719-0.528
	c-0.552-0.233-1.093-0.516-1.596-0.847c-0.503-0.344-0.97-0.724-1.399-1.142c-0.417-0.43-0.81-0.896-1.142-1.399
	s-0.614-1.043-0.847-1.596c-0.233-0.552-0.405-1.129-0.528-1.719c-0.11-0.602-0.172-1.203-0.172-1.805s0.061-1.203,0.172-1.792
	c0.123-0.589,0.295-1.166,0.528-1.731c0.233-0.552,0.516-1.08,0.847-1.584s0.724-0.97,1.142-1.399c0.43-0.43,0.896-0.81,1.399-1.142
	c0.503-0.331,1.043-0.626,1.596-0.847c0.552-0.233,1.129-0.405,1.719-0.528c2.995-0.602,6.175,0.381,8.311,2.516
	c0.43,0.43,0.81,0.896,1.142,1.399c0.331,0.503,0.626,1.031,0.847,1.584c0.233,0.565,0.405,1.142,0.528,1.731
	c0.123,0.589,0.184,1.191,0.184,1.792c0,0.602-0.061,1.203-0.184,1.805c-0.123,0.589-0.295,1.166-0.528,1.719
	c-0.221,0.552-0.516,1.092-0.847,1.596c-0.331,0.503-0.712,0.97-1.142,1.399C362.445,283.238,360.076,284.22,357.657,284.22z"/>
<path d="M85.151,354.191c-0.602,0-1.203-0.061-1.805-0.184c-0.577-0.11-1.166-0.295-1.719-0.528
	c-0.552-0.221-1.093-0.503-1.584-0.835c-0.516-0.344-0.982-0.724-1.412-1.154c-1.706-1.706-2.688-4.088-2.688-6.506
	c0-0.601,0.061-1.203,0.184-1.805c0.11-0.577,0.295-1.166,0.516-1.719c0.233-0.552,0.516-1.093,0.847-1.584
	c0.344-0.503,0.724-0.982,1.142-1.399c0.43-0.43,0.896-0.81,1.412-1.154c0.491-0.331,1.031-0.614,1.584-0.847
	c0.552-0.221,1.142-0.405,1.719-0.516c1.191-0.246,2.418-0.246,3.597,0c0.589,0.11,1.178,0.295,1.731,0.516
	c0.552,0.233,1.093,0.516,1.584,0.847c0.503,0.344,0.982,0.724,1.399,1.154c0.43,0.417,0.81,0.896,1.142,1.399
	c0.331,0.491,0.626,1.031,0.847,1.584c0.233,0.552,0.417,1.142,0.528,1.719c0.123,0.602,0.184,1.203,0.184,1.805
	c0,2.418-0.982,4.8-2.701,6.506c-0.417,0.43-0.896,0.81-1.399,1.154c-0.491,0.331-1.031,0.614-1.584,0.835
	c-0.552,0.233-1.142,0.417-1.731,0.528C86.354,354.129,85.753,354.191,85.151,354.191z"/>
<path d="M257.611,344.984c0-5.082,4.125-9.207,9.207-9.207l0,0c5.082,0,9.207,4.125,9.207,9.207l0,0
	c0,5.082-4.125,9.207-9.207,9.207l0,0C261.736,354.191,257.611,350.066,257.611,344.984z M212.191,344.984
	c0-5.082,4.125-9.207,9.207-9.207l0,0c5.094,0,9.207,4.125,9.207,9.207l0,0c0,5.082-4.112,9.207-9.207,9.207l0,0
	C216.316,354.191,212.191,350.066,212.191,344.984z M166.772,344.984c0-5.082,4.125-9.207,9.219-9.207l0,0
	c5.082,0,9.207,4.125,9.207,9.207l0,0c0,5.082-4.125,9.207-9.207,9.207l0,0C170.896,354.191,166.772,350.066,166.772,344.984z
	 M121.364,344.984c0-5.082,4.112-9.207,9.207-9.207l0,0c5.082,0,9.207,4.125,9.207,9.207l0,0c0,5.082-4.125,9.207-9.207,9.207l0,0
	C125.476,354.191,121.364,350.066,121.364,344.984z"/>
<path d="M85.151,424.162c-0.602,0-1.203-0.061-1.805-0.184c-0.577-0.123-1.166-0.295-1.719-0.528s-1.093-0.516-1.584-0.847
	c-0.516-0.331-0.982-0.712-1.412-1.142c-0.417-0.43-0.798-0.896-1.142-1.399c-0.331-0.503-0.614-1.031-0.847-1.584
	c-0.221-0.565-0.405-1.142-0.516-1.731c-0.123-0.589-0.184-1.191-0.184-1.792c0-0.601,0.061-1.203,0.184-1.805
	c0.11-0.589,0.295-1.166,0.516-1.719c0.233-0.552,0.516-1.093,0.847-1.596c0.344-0.503,0.724-0.97,1.142-1.399
	c0.43-0.417,0.896-0.81,1.412-1.142c0.491-0.331,1.031-0.614,1.584-0.847c0.552-0.233,1.142-0.405,1.719-0.528
	c1.191-0.233,2.418-0.233,3.597,0c0.589,0.123,1.178,0.295,1.731,0.528c0.552,0.233,1.093,0.516,1.584,0.847
	c0.503,0.331,0.982,0.724,1.399,1.142c1.719,1.719,2.701,4.088,2.701,6.518c0,0.602-0.061,1.203-0.184,1.792
	c-0.11,0.589-0.295,1.166-0.528,1.731c-0.221,0.552-0.516,1.08-0.847,1.584c-0.331,0.503-0.712,0.97-1.142,1.399
	c-0.417,0.43-0.896,0.81-1.399,1.142c-0.491,0.331-1.031,0.614-1.584,0.847c-0.552,0.233-1.142,0.405-1.731,0.528
	C86.354,424.1,85.753,424.162,85.151,424.162z"/>
<path d="M257.611,414.955c0-5.094,4.125-9.207,9.207-9.207l0,0c5.082,0,9.207,4.112,9.207,9.207l0,0
	c0,5.082-4.125,9.207-9.207,9.207l0,0C261.736,424.162,257.611,420.037,257.611,414.955z M212.191,414.955
	c0-5.094,4.125-9.207,9.207-9.207l0,0c5.094,0,9.207,4.112,9.207,9.207l0,0c0,5.082-4.112,9.207-9.207,9.207l0,0
	C216.316,424.162,212.191,420.037,212.191,414.955z M166.772,414.955c0-5.094,4.125-9.207,9.219-9.207l0,0
	c5.082,0,9.207,4.112,9.207,9.207l0,0c0,5.082-4.125,9.207-9.207,9.207l0,0C170.896,424.162,166.772,420.037,166.772,414.955z
	 M121.364,414.955c0-5.094,4.112-9.207,9.207-9.207l0,0c5.082,0,9.207,4.112,9.207,9.207l0,0c0,5.082-4.125,9.207-9.207,9.207l0,0
	C125.476,424.162,121.364,420.037,121.364,414.955z"/>
<path style="fill:#FFFFFF;" d="M446.483,390.176c0-20.584-13.826-37.27-30.881-37.27c-3.247,0-6.376,0.605-9.316,1.727
	c-10.596,4.046-22.482,4.046-33.078,0c-2.939-1.122-6.069-1.727-9.316-1.727c-17.055,0-30.881,16.686-30.881,37.27
	c0,7.194,1.689,13.91,4.614,19.603c6.852,13.339,11.274,27.774,13.676,42.576c0.039,0.244,0.08,0.487,0.119,0.732
	c1.73,10.51,16.242,11.712,19.722,1.645c4.818-13.939,11.188-26.343,18.602-26.343c7.414,0,13.784,12.405,18.602,26.343
	c3.48,10.067,17.992,8.865,19.722-1.645c0.04-0.244,0.08-0.487,0.119-0.732c2.401-14.802,6.823-29.237,13.676-42.576
	C444.793,404.085,446.483,397.369,446.483,390.176z"/>
<g>
	<path style="fill:#F9D08F;" d="M112.765,9.442L112.765,9.442c-8.814,0-15.958,7.144-15.958,15.958v46.647
		c0,8.814,7.144,15.958,15.958,15.958l0,0c8.814,0,15.958-7.144,15.958-15.958V25.401C128.723,16.588,121.579,9.442,112.765,9.442z"
		/>
	<path style="fill:#F9D08F;" d="M330.043,9.442L330.043,9.442c-8.814,0-15.958,7.144-15.958,15.958v46.647
		c0,8.814,7.144,15.958,15.958,15.958l0,0c8.814,0,15.958-7.144,15.958-15.958V25.401C346.002,16.588,338.857,9.442,330.043,9.442z"
		/>
</g>
<path d="M294.011,480.995H35.327V152.645h64.14c5.085,0,9.207-4.122,9.207-9.207c0-5.085-4.122-9.207-9.207-9.207h-64.14V38.484
	h52.656v33.328c0,13.876,11.289,25.165,25.165,25.165s25.165-11.289,25.165-25.165V38.484h166.948v33.328
	c0,13.876,11.289,25.165,25.165,25.165s25.165-11.289,25.165-25.165V38.484h52.656v95.747H136.294c-5.085,0-9.207,4.122-9.207,9.207
	c0,5.085,4.122,9.207,9.207,9.207h271.954v127.632c0,5.085,4.122,9.207,9.207,9.207c5.085,0,9.207-4.122,9.207-9.207v-251
	c0-5.085-4.122-9.207-9.207-9.207h-62.382C352.71,8.629,342.558,0,330.426,0s-22.283,8.629-24.646,20.071H137.794
	C135.432,8.629,125.28,0,113.148,0S90.865,8.629,88.504,20.071H26.12c-5.085,0-9.207,4.122-9.207,9.207v460.925
	c0,5.085,4.122,9.207,9.207,9.207h267.891c5.085,0,9.207-4.122,9.207-9.207C303.218,485.118,299.095,480.995,294.011,480.995z
	 M323.675,25.165c0-3.723,3.028-6.752,6.752-6.752s6.752,3.028,6.752,6.752v3.993c0,0.041-0.006,0.079-0.006,0.119
	c0,0.041,0.005,0.079,0.006,0.119v42.416c0,3.723-3.028,6.752-6.752,6.752s-6.752-3.028-6.752-6.752V25.165z M106.396,25.165
	c0-3.723,3.028-6.752,6.752-6.752c3.723,0,6.752,3.028,6.752,6.752v46.647c0,3.723-3.028,6.752-6.752,6.752
	c-3.723,0-6.752-3.028-6.752-6.752V25.165z"/>
<path d="M390.131,302.096c-57.871,0-104.952,47.082-104.952,104.952s47.082,104.952,104.952,104.952
	c25.447,0,49.995-9.224,69.119-25.973c3.825-3.35,4.211-9.167,0.861-12.991c-3.35-3.825-9.167-4.211-12.991-0.861
	c-15.766,13.808-36.004,21.411-56.987,21.411c-47.718,0-86.538-38.822-86.538-86.538s38.822-86.538,86.538-86.538
	s86.538,38.822,86.538,86.538c0,14.063-3.264,27.47-9.7,39.853c-2.346,4.511-0.589,10.07,3.922,12.416
	c4.51,2.346,10.071,0.588,12.416-3.922c7.704-14.82,11.777-31.538,11.777-48.346C495.083,349.177,448.002,302.096,390.131,302.096z"
	/>
<path d="M221.781,195.6c-5.082,0-9.207,4.125-9.207,9.207c0,5.094,4.125,9.219,9.207,9.219c5.094,0,9.207-4.125,9.207-9.219
	C230.988,199.724,226.877,195.6,221.781,195.6z"/>
<path d="M176.374,195.6c-5.094,0-9.219,4.125-9.219,9.207c0,5.094,4.125,9.219,9.219,9.219c5.082,0,9.207-4.125,9.207-9.219
	C185.58,199.724,181.457,195.6,176.374,195.6z"/>
<path d="M267.201,195.6c-5.082,0-9.207,4.125-9.207,9.207c0,5.094,4.125,9.219,9.207,9.219c5.082,0,9.207-4.125,9.207-9.219
	C276.408,199.724,272.283,195.6,267.201,195.6z"/>
<path d="M312.621,195.6c-5.082,0-9.207,4.125-9.207,9.207c0,5.094,4.125,9.219,9.207,9.219c5.082,0,9.207-4.125,9.207-9.219
	C321.827,199.724,317.703,195.6,312.621,195.6z"/>
<path d="M221.781,265.571c-5.082,0-9.207,4.125-9.207,9.207c0,5.094,4.125,9.207,9.207,9.207c5.094,0,9.207-4.112,9.207-9.207
	C230.988,269.695,226.877,265.571,221.781,265.571z"/>
<path d="M176.374,265.571c-5.094,0-9.219,4.125-9.219,9.207c0,5.094,4.125,9.207,9.219,9.207c5.082,0,9.207-4.112,9.207-9.207
	C185.58,269.695,181.457,265.571,176.374,265.571z"/>
<path d="M267.201,265.571c-5.082,0-9.207,4.125-9.207,9.207c0,5.094,4.125,9.207,9.207,9.207c5.082,0,9.207-4.112,9.207-9.207
	C276.408,269.695,272.283,265.571,267.201,265.571z"/>
<path d="M312.621,265.571c-5.082,0-9.207,4.125-9.207,9.207c0,5.094,4.125,9.207,9.207,9.207c5.082,0,9.207-4.112,9.207-9.207
	C321.827,269.695,317.703,265.571,312.621,265.571z"/>
<path d="M130.954,265.571c-5.094,0-9.207,4.125-9.207,9.207c0,5.094,4.112,9.207,9.207,9.207c5.082,0,9.207-4.112,9.207-9.207
	C140.161,269.695,136.037,265.571,130.954,265.571z"/>
<circle cx="267.202" cy="344.748" r="9.207"/>
<path d="M221.781,335.542c-5.082,0-9.207,4.125-9.207,9.207s4.125,9.207,9.207,9.207c5.094,0,9.207-4.125,9.207-9.207
	C230.988,339.666,226.877,335.542,221.781,335.542z"/>
<path d="M130.954,335.542c-5.094,0-9.207,4.125-9.207,9.207s4.112,9.207,9.207,9.207c5.082,0,9.207-4.125,9.207-9.207
	C140.161,339.666,136.037,335.542,130.954,335.542z"/>
<path d="M176.374,335.542c-5.094,0-9.219,4.125-9.219,9.207s4.125,9.207,9.219,9.207c5.082,0,9.207-4.125,9.207-9.207
	C185.58,339.666,181.457,335.542,176.374,335.542z"/>
<path d="M176.374,405.513c-5.094,0-9.219,4.112-9.219,9.207c0,5.082,4.125,9.207,9.219,9.207c5.082,0,9.207-4.125,9.207-9.207
	C185.58,409.625,181.457,405.513,176.374,405.513z"/>
<path d="M130.954,405.513c-5.094,0-9.207,4.112-9.207,9.207c0,5.082,4.112,9.207,9.207,9.207c5.082,0,9.207-4.125,9.207-9.207
	C140.161,409.625,136.037,405.513,130.954,405.513z"/>
<path d="M221.781,405.513c-5.082,0-9.207,4.112-9.207,9.207c0,5.082,4.125,9.207,9.207,9.207c5.094,0,9.207-4.125,9.207-9.207
	C230.988,409.625,226.877,405.513,221.781,405.513z"/>
<path d="M267.201,405.513c-5.082,0-9.207,4.112-9.207,9.207c0,5.082,4.125,9.207,9.207,9.207c5.082,0,9.207-4.125,9.207-9.207
	C276.408,409.625,272.283,405.513,267.201,405.513z"/>
<path d="M415.986,343.463c-4.306,0-8.545,0.784-12.6,2.334c-8.424,3.216-18.086,3.215-26.509,0c-4.055-1.548-8.293-2.334-12.6-2.334
	c-22.105,0-40.087,20.849-40.087,46.477c0,8.405,1.947,16.64,5.632,23.811c6.122,11.915,10.421,25.32,12.776,39.842l0.124,0.754
	c1.471,8.934,8.498,15.451,17.489,16.215c9.003,0.767,17.055-4.481,20.019-13.059c4.671-13.512,8.356-18.17,9.902-19.652
	c1.546,1.482,5.231,6.14,9.9,19.652c2.773,8.023,9.991,13.132,18.286,13.132c0.572,0,1.151-0.025,1.733-0.074
	c8.991-0.765,16.018-7.281,17.49-16.215l0.123-0.753c2.356-14.522,6.655-27.927,12.776-39.843
	c3.685-7.173,5.633-15.406,5.633-23.811C456.073,364.312,438.091,343.463,415.986,343.463z M434.062,405.336
	c-7.006,13.635-11.909,28.878-14.575,45.309l-0.115,0.71c-0.064,0.392-0.13,0.795-0.88,0.859c-0.784,0.064-0.928-0.355-1.056-0.727
	c-4.828-13.97-12.911-32.543-27.303-32.543c-6.893,0-17.221,3.373-27.305,32.543c-0.128,0.372-0.268,0.791-1.056,0.728
	c-0.749-0.064-0.813-0.451-0.88-0.859l-0.117-0.711c-2.666-16.431-7.57-31.674-14.575-45.308c-2.353-4.58-3.597-9.904-3.597-15.396
	c0-15.475,9.722-28.063,21.674-28.063c2.052,0,4.082,0.377,6.032,1.122c12.783,4.881,26.863,4.88,39.645,0
	c1.949-0.744,3.979-1.122,6.032-1.122c11.952,0,21.674,12.589,21.674,28.063C437.66,395.431,436.415,400.755,434.062,405.336z"/>
<path d="M358.04,195.6c-5.082,0-9.207,4.125-9.207,9.207c0,5.094,4.125,9.219,9.207,9.219s9.207-4.125,9.207-9.219
	C367.247,199.724,363.123,195.6,358.04,195.6z"/>
<path d="M358.04,265.571c-5.082,0-9.207,4.125-9.207,9.207c0,5.094,4.125,9.207,9.207,9.207s9.207-4.112,9.207-9.207
	C367.247,269.695,363.123,265.571,358.04,265.571z"/>
<path d="M85.534,265.571c-5.094,0-9.207,4.125-9.207,9.207c0,5.094,4.112,9.207,9.207,9.207c5.082,0,9.207-4.112,9.207-9.207
	C94.741,269.695,90.617,265.571,85.534,265.571z"/>
<path d="M85.534,335.542c-5.094,0-9.207,4.125-9.207,9.207s4.112,9.207,9.207,9.207c5.082,0,9.207-4.125,9.207-9.207
	C94.741,339.666,90.617,335.542,85.534,335.542z"/>
<path d="M85.534,405.513c-5.094,0-9.207,4.112-9.207,9.207c0,5.082,4.112,9.207,9.207,9.207c5.082,0,9.207-4.125,9.207-9.207
	C94.741,409.625,90.617,405.513,85.534,405.513z"/>
<g>
</g>
<g>
</g>
<g>
</g>
<g>
</g>
<g>
</g>
<g>
</g>
<g>
</g>
<g>
</g>
<g>
</g>
<g>
</g>
<g>
</g>
<g>
</g>
<g>
</g>
<g>
</g>
<g>
</g>
</svg>
